Coordinates
version=1
nRows=14
nColumns=40
inDegrees=yes

Units are S.I. units (second, meters, Newtons, ...)
If the header above contains a line with 'inDegrees', this indicates whether rotational values are in degrees (yes) or radians (no).

endheader
time	pelvis_tilt	pelvis_list	pelvis_rotation	pelvis_tx	pelvis_ty	pelvis_tz	hip_flexion_r	hip_adduction_r	hip_rotation_r	knee_angle_r	knee_angle_r_beta	ankle_angle_r	subtalar_angle_r	mtp_angle_r	hip_flexion_l	hip_adduction_l	hip_rotation_l	knee_angle_l	knee_angle_l_beta	ankle_angle_l	subtalar_angle_l	mtp_angle_l	lumbar_extension	lumbar_bending	lumbar_rotation	arm_flex_r	arm_add_r	arm_rot_r	elbow_flex_r	pro_sup_r	wrist_flex_r	wrist_dev_r	arm_flex_l	arm_add_l	arm_rot_l	elbow_flex_l	pro_sup_l	wrist_flex_l	wrist_dev_l
      5.23300000	      5.29023241	     10.96864044	      2.20716582	      0.06431320	      1.32702027	      0.00536581	     22.60826970	    -17.25296713	     -5.01579352	     43.11497779	      0.75249832	     -7.56273619	    -17.06628499	      0.00000000	     59.02056491	      1.39200448	     -2.57881259	    109.26842133	      1.90709372	      9.43763365	     -8.09790910	      0.00000000	    -62.33788419	      2.37734077	    -10.64472630	     43.72966790	      0.39182028	    -11.61357409	     44.93711040	     27.57624228	      0.00000000	      0.00000000	     52.59253626	     17.22820506	     -2.64880828	     31.35204646	     11.99330058	      0.00000000	      0.00000000
      5.25000000	      5.29846035	     10.84755691	      2.00018491	      0.06442161	      1.32688328	      0.00573449	     21.76104829	    -17.01733847	     -5.74630897	     43.60019628	      0.76096698	     -7.05809857	    -17.10500583	      0.00000000	     60.11110667	      1.07852656	     -3.17834352	    108.54587923	      1.89448298	      9.58834985	     -8.26763005	      0.00000000	    -62.35737482	      2.26107978	    -10.52736511	     43.78088733	      0.36562449	    -11.53430363	     44.84541532	     27.59993931	      0.00000000	      0.00000000	     52.58163642	     17.28146065	     -2.82168526	     31.39776929	     12.02221351	      0.00000000	      0.00000000
      5.26700000	      5.37392227	     10.68392639	      1.78551900	      0.06465684	      1.32681764	      0.00608477	     21.15461032	    -16.74615319	     -6.35731272	     44.68588433	      0.77991581	     -6.15854972	    -17.22366936	      0.00000000	     60.84175913	      0.82476261	     -3.69801098	    107.44278695	      1.87523039	      9.80022151	     -8.51187416	      0.00000000	    -62.43909907	      2.19595684	    -10.37308354	     43.89441089	      0.35909557	    -11.44348599	     44.74713729	     27.63358231	      0.00000000	      0.00000000	     52.56291463	     17.32557266	     -3.05003502	     31.47089006	     12.07349350	      0.00000000	      0.00000000
      5.28300000	      5.45836630	     10.55178436	      1.54269247	      0.06492900	      1.32694121	      0.00639455	     20.79589350	    -16.49201463	     -6.74770649	     46.20985140	      0.80651405	     -4.98320130	    -17.43428449	      0.00000000	     61.25918759	      0.65717290	     -4.21759632	    105.93784231	      1.84896415	     10.07398726	     -8.79417098	      0.00000000	    -62.55486285	      2.12326546	    -10.25045350	     44.05995532	      0.39679079	    -11.32832813	     44.66372163	     27.62826193	      0.00000000	      0.00000000	     52.58033803	     17.34264653	     -3.28838314	     31.55663344	     12.01311964	      0.00000000	      0.00000000
      5.30000000	      5.50981264	     10.57813107	      1.24571902	      0.06518873	      1.32705482	      0.00669911	     20.80472559	    -16.40096409	     -6.79658629	     48.19317857	      0.84112964	     -3.56987138	    -17.53480024	      0.00000000	     61.35447455	      0.53744739	     -4.89203524	    104.07911696	      1.81652327	     10.44913607	     -9.01548127	      0.00000000	    -62.63710517	      1.89163299	    -10.24961611	     44.21046688	      0.47350529	    -11.22752553	     44.54915105	     27.54494014	      0.00000000	      0.00000000	     52.59436033	     17.35255700	     -3.51459856	     31.66504466	     11.82446182	      0.00000000	      0.00000000
      5.31700000	      5.70045327	     10.21442669	      1.07945617	      0.06555528	      1.32747896	      0.00679938	     20.85844481	    -16.01210024	     -7.06078059	     50.52178507	      0.88177149	     -2.75416973	    -17.61490500	      0.00000000	     61.02711253	      0.31306311	     -5.04397805	    101.98924181	      1.78004807	     10.77163080	     -9.01541942	      0.00000000	    -62.85482347	      2.02937260	     -9.92044301	     44.36686738	      0.48947327	    -11.18452414	     44.49891961	     27.56622741	      0.00000000	      0.00000000	     52.60327798	     17.30984052	     -3.53401266	     31.77914781	     11.91171633	      0.00000000	      0.00000000
      5.33300000	      5.80005441	     10.18212826	      0.80483963	      0.06594644	      1.32774827	      0.00701896	     21.31669143	    -15.87117108	     -6.83006160	     53.29683839	      0.93020531	     -1.06947001	    -17.88630222	      0.00000000	     60.37185110	      0.17922217	     -5.50999570	     99.50557500	      1.73669991	     11.60041894	     -8.59829782	      0.00000000	    -62.96808880	      1.84927376	     -9.85476672	     44.50963069	      0.60116204	    -11.17442469	     44.41362258	     27.54754311	      0.00000000	      0.00000000	     52.67031271	     17.21985420	     -3.56843359	     31.78455947	     11.90945863	      0.00000000	      0.00000000
      5.35000000	      5.97106812	     10.01773391	      0.51242843	      0.06627369	      1.32823020	      0.00716239	     21.95675103	    -15.64195985	     -6.50219254	     56.35545593	      0.98358826	      0.11179002	    -17.86365391	      0.00000000	     59.39251968	     -0.00976003	     -5.80892471	     96.80628680	      1.68958844	     12.18338334	     -8.06022352	      0.00000000	    -63.16588909	      1.74671182	     -9.62667305	     44.64773064	      0.66167096	    -11.15100124	     44.36715984	     27.48462765	      0.00000000	      0.00000000	     52.72335147	     17.14998440	     -3.48562594	     31.83581742	     11.72357565	      0.00000000	      0.00000000
      5.36700000	      6.25843172	      9.41252572	      0.45277345	      0.06657732	      1.32900320	      0.00693594	     22.54593096	    -15.08857640	     -6.53105162	     59.59098199	      1.04005884	      0.75157199	    -17.83482994	      0.00000000	     58.11561477	     -0.19112262	     -5.56205131	     93.94994742	      1.63973591	     12.34036679	     -7.99249769	      0.00000000	    -63.47803801	      2.11093104	     -9.10483867	     44.80281653	      0.69361745	    -11.10423618	     44.33454966	     27.47680669	      0.00000000	      0.00000000	     52.74973847	     17.11001221	     -3.47448449	     31.96930884	     11.65913175	      0.00000000	      0.00000000
      5.38300000	      6.45015257	      9.30780082	     -0.09496049	      0.06679851	      1.32956502	      0.00734962	     23.68831058	    -14.84598417	     -5.72272311	     63.22996507	      1.10357108	      2.23875433	    -17.55746074	      0.00000000	     56.49175374	     -0.54286599	     -6.01048585	     90.68200086	      1.58269949	     12.91133359	     -7.09836542	      0.00000000	    -63.69279265	      1.72273678	     -8.84028071	     44.90853041	      0.80973040	    -11.07936081	     44.30943493	     27.44131639	      0.00000000	      0.00000000	     52.81194719	     17.01763301	     -3.40621157	     32.00210088	     11.43224526	      0.00000000	      0.00000000
      5.40000000	      6.71385197	      8.84120872	     -0.36737765	      0.06704476	      1.33020587	      0.00735025	     24.74641816	    -14.37263554	     -5.33660277	     66.87024036	      1.16710587	      3.16236110	    -17.33554939	      0.00000000	     54.71238548	     -0.85412593	     -6.02633328	     87.41590004	      1.52569527	     12.89248151	     -6.71155535	      0.00000000	    -63.97149266	      1.81722499	     -8.34628246	     45.03251053	      0.85145772	    -11.01564477	     44.29194664	     27.44105575	      0.00000000	      0.00000000	     52.82545882	     16.97728711	     -3.41147269	     32.09340980	     11.26004263	      0.00000000	      0.00000000
      5.41700000	      6.95057530	      8.40359924	     -0.69052817	      0.06721147	      1.33088877	      0.00748884	     25.98362912	    -13.93836041	     -4.91540254	     70.55140858	      1.23135437	      3.92702439	    -17.01205362	      0.00000000	     52.74557368	     -1.17921523	     -6.09468056	     83.99109088	      1.46592108	     12.58121882	     -6.36836727	      0.00000000	    -64.25959034	      1.84790594	     -7.84277793	     45.12994008	      0.92782066	    -10.99845962	     44.32306693	     27.45151557	      0.00000000	      0.00000000	     52.84367238	     16.96590766	     -3.47630307	     32.22610734	     11.08399746	      0.00000000	      0.00000000
      5.43300000	      7.17565302	      7.95891178	     -1.06110038	      0.06734954	      1.33149586	      0.00763755	     27.39172016	    -13.50950481	     -4.43954429	     74.30388918	      1.29684751	      4.57291509	    -16.57785703	      0.00000000	     50.59279262	     -1.51631992	     -6.18182244	     80.42634917	      1.40370460	     12.06796025	     -6.09216749	      0.00000000	    -64.53510529	      1.85894294	     -7.30269237	     45.22256140	      1.00011518	    -10.97292453	     44.37032881	     27.48126019	      0.00000000	      0.00000000	     52.84981095	     16.97023826	     -3.56218301	     32.35815387	     10.91092014	      0.00000000	      0.00000000
      5.45000000	      7.33654642	      7.49910776	     -1.46039638	      0.06745247	      1.33196575	      0.00788463	     28.94373205	    -13.08880380	     -3.97807078	     77.95491444	      1.36056993	      5.17187871	    -16.14303181	      0.00000000	     48.37301406	     -1.87543569	     -6.27411690	     76.83679513	      1.34105506	     11.37759830	     -5.86213555	      0.00000000	    -64.74676216	      1.86658833	     -6.75301051	     45.33331693	      1.05684958	    -10.91110979	     44.38373452	     27.65043908	      0.00000000	      0.00000000	     52.82090227	     16.97444732	     -3.81898720	     32.50446898	     11.14866456	      0.00000000	      0.00000000
